<?xml version="1.0" encoding="UTF-8" standalone="no"?>
<svg
   width="16"
   height="16"
   version="1.1"
   id="svg5"
   sodipodi:docname="wechat.svg"
   inkscape:version="1.4.1 (93de688d07, 2025-03-30)"
   xmlns:inkscape="http://www.inkscape.org/namespaces/inkscape"
   xmlns:sodipodi="http://sodipodi.sourceforge.net/DTD/sodipodi-0.dtd"
   xmlns="http://www.w3.org/2000/svg"
   xmlns:svg="http://www.w3.org/2000/svg">
  <defs
     id="defs5" />
  <sodipodi:namedview
     id="namedview5"
     pagecolor="#ffffff"
     bordercolor="#000000"
     borderopacity="0.25"
     inkscape:showpageshadow="2"
     inkscape:pageopacity="0.0"
     inkscape:pagecheckerboard="0"
     inkscape:deskcolor="#d1d1d1"
     inkscape:zoom="40.4375"
     inkscape:cx="7.9876352"
     inkscape:cy="8"
     inkscape:window-width="1414"
     inkscape:window-height="838"
     inkscape:window-x="0"
     inkscape:window-y="0"
     inkscape:window-maximized="1"
     inkscape:current-layer="svg5" />
  <path
     id="path1"
     style="fill:#dfdfdf;fill-opacity:1"
     d="M 5.5019531 2 C 2.4642583 2.0000141 1.7763568e-15 4.112918 0 6.71875 C 0 8.1411388 0.94152239 9.1796618 2.0996094 10.050781 C 2.1971394 10.121381 2.2560796 10.23659 2.2558594 10.359375 C 2.2546794 10.400295 2.246517 10.441495 2.234375 10.480469 C 2.143044 10.836066 1.960558 11.647488 1.9550781 11.673828 C 1.9385091 11.717868 1.9278581 11.765443 1.9238281 11.8125 C 1.9238278 11.916411 2.0045853 12 2.1054688 12 C 2.1430176 11.9982 2.1790267 11.987247 2.2109375 11.966797 L 3.4492188 10.863281 C 3.5376237 10.808621 3.6390982 10.779394 3.7421875 10.777344 C 3.7972075 10.777809 3.8514443 10.785031 3.9042969 10.800781 C 4.4879992 10.973836 4.892599 11.061368 5.5 11.060547 C 8.5376953 11.060547 11 9.3342753 11 6.7265625 C 11 4.1188467 8.5396486 2 5.5019531 2 z M 3.75 4.5 A 0.75 0.75 0 0 1 4.5 5.25 A 0.75 0.75 0 0 1 3.75 6 A 0.75 0.75 0 0 1 3 5.25 A 0.75 0.75 0 0 1 3.75 4.5 z M 7.75 4.5 A 0.75 0.75 0 0 1 8.5 5.25 A 0.75 0.75 0 0 1 7.75 6 A 0.75 0.75 0 0 1 7 5.25 A 0.75 0.75 0 0 1 7.75 4.5 z M 9.5 8 A 0.5 0.5 0 0 1 10 8.5 A 0.5 0.5 0 0 1 9.5 9 A 0.5 0.5 0 0 1 9 8.5 A 0.5 0.5 0 0 1 9.5 8 z " />
  <path
     id="path2"
     style="fill:#e4e4e4"
     d="M 10.998047 6 C 8.236333 6 6 7.9018195 6 10.25 C 6 12.596146 8.2402366 14.046875 11.001953 14.046875 C 11.554279 14.047975 11.691623 13.971405 12.222656 13.816406 C 12.270496 13.801586 12.321108 13.792979 12.371094 13.792969 C 12.464574 13.794869 12.554443 13.822254 12.634766 13.871094 L 13.787109 14.966797 C 13.815399 14.986577 13.848553 14.99849 13.882812 15 C 13.974873 14.9989 14.049704 14.922069 14.050781 14.828125 C 14.045581 14.785705 14.036174 14.745122 14.021484 14.705078 C 13.402191 11.980216 16 12.9797 16 10.25 C 16 7.9018195 13.759763 6 10.998047 6 z M 9.5 8 A 0.5 0.5 0 0 1 10 8.5 A 0.5 0.5 0 0 1 9.5 9 A 0.5 0.5 0 0 1 9 8.5 A 0.5 0.5 0 0 1 9.5 8 z M 12.5 8 A 0.5 0.5 0 0 1 13 8.5 A 0.5 0.5 0 0 1 12.5 9 A 0.5 0.5 0 0 1 12 8.5 A 0.5 0.5 0 0 1 12.5 8 z " />
</svg>
